<mxfile host="app.diagrams.net" modified="2021-03-12T15:06:18.509Z" agent="5.0 (X11; Linux x86_64) AppleWebKit/537.36 (KHTML, like Gecko) Chrome/88.0.4324.96 Safari/537.36" etag="4u-7uMd0_3BZ8y1qACb9" version="14.4.7" type="github">
  <diagram id="09QfUkjnvgGYkH65p0EQ" name="Page-1">
    <mxGraphModel dx="4740" dy="4875" grid="1" gridSize="10" guides="1" tooltips="1" connect="1" arrows="1" fold="1" page="1" pageScale="1" pageWidth="827" pageHeight="1169" math="0" shadow="0">
      <root>
        <mxCell id="0" />
        <mxCell id="1" parent="0" />
        <object placeholders="1" c4Name="name" c4Type="ExecutionEnvironment" c4Application="applicationAndVersion" label="&lt;div style=&quot;text-align: left&quot;&gt;%c4Name%&lt;/div&gt;&lt;div style=&quot;text-align: left&quot;&gt;[%c4Application%]&lt;/div&gt;" id="Br8_Ab8YKEwOugRyF4kc-11">
          <mxCell style="rounded=1;whiteSpace=wrap;html=1;labelBackgroundColor=none;fillColor=#ffffff;fontColor=#000000;align=left;arcSize=5;strokeColor=#000000;verticalAlign=bottom;metaEdit=1;metaData={&quot;c4Type&quot;:{&quot;editable&quot;:false}};points=[[0.25,0,0],[0.5,0,0],[0.75,0,0],[1,0.25,0],[1,0.5,0],[1,0.75,0],[0.75,1,0],[0.5,1,0],[0.25,1,0],[0,0.75,0],[0,0.5,0],[0,0.25,0]];" vertex="1" parent="1">
            <mxGeometry x="370" y="-760" width="2080" height="1290" as="geometry" />
          </mxCell>
        </object>
        <object placeholders="1" c4Name="End user" c4Type="Person" c4Description="Persoana care foloseste&#xa;pop-up chatul implementat&#xa; de client" label="&lt;b style=&quot;font-size: 30px;&quot;&gt;%c4Name%&lt;/b&gt;&lt;div style=&quot;font-size: 30px;&quot;&gt;[%c4Type%]&lt;/div&gt;&lt;br style=&quot;font-size: 30px;&quot;&gt;&lt;div style=&quot;font-size: 30px;&quot;&gt;%c4Description%&lt;/div&gt;" id="Br8_Ab8YKEwOugRyF4kc-4">
          <mxCell style="html=1;dashed=0;whitespace=wrap;shape=mxgraph.c4.person;align=center;metaEdit=1;points=[[0.5,0,0],[1,0.5,0],[1,0.75,0],[0.75,1,0],[0.5,1,0],[0.25,1,0],[0,0.75,0],[0,0.5,0]];metaData={&quot;c4Type&quot;:{&quot;editable&quot;:false}};labelBackgroundColor=none;flipH=1;flipV=0;fillColor=#08427B;strokeColor=#08427B;fontColor=#FFFFFF;fontSize=30;" vertex="1" parent="1">
            <mxGeometry x="599.99" y="-1559" width="390.01" height="390" as="geometry" />
          </mxCell>
        </object>
        <object placeholders="1" c4Type="Relationship" c4Technology="HTPP/JSON" c4Description="Face calluri API" label="&lt;div style=&quot;text-align: left; font-size: 30px;&quot;&gt;&lt;div style=&quot;text-align: center; font-size: 30px;&quot;&gt;&lt;b style=&quot;font-size: 30px;&quot;&gt;%c4Description%&lt;/b&gt;&lt;/div&gt;&lt;div style=&quot;text-align: center; font-size: 30px;&quot;&gt;[%c4Technology%]&lt;/div&gt;&lt;/div&gt;" id="Br8_Ab8YKEwOugRyF4kc-5">
          <mxCell style="edgeStyle=none;rounded=0;html=1;jettySize=auto;orthogonalLoop=1;strokeColor=#707070;strokeWidth=6;fontColor=#707070;jumpStyle=none;dashed=1;metaEdit=1;metaData={&quot;c4Type&quot;:{&quot;editable&quot;:false}};fontSize=30;exitX=1;exitY=0.5;exitDx=0;exitDy=0;exitPerimeter=0;entryX=0;entryY=0.5;entryDx=0;entryDy=0;entryPerimeter=0;" edge="1" parent="1" source="Br8_Ab8YKEwOugRyF4kc-14" target="Br8_Ab8YKEwOugRyF4kc-8">
            <mxGeometry width="160" relative="1" as="geometry">
              <mxPoint x="1654" y="-444" as="sourcePoint" />
              <mxPoint x="715" y="183.23499999999967" as="targetPoint" />
            </mxGeometry>
          </mxCell>
        </object>
        <object placeholders="1" c4Name="API Application" c4Type="Container" c4Technology="JavaScript" c4Description="API ul care care menegeriaza mesajele , sesiunile si setarile chatului" label="&lt;b style=&quot;font-size: 30px;&quot;&gt;%c4Name%&lt;/b&gt;&lt;div style=&quot;font-size: 30px;&quot;&gt;[%c4Type%: %c4Technology%]&lt;/div&gt;&lt;br style=&quot;font-size: 30px;&quot;&gt;&lt;div style=&quot;font-size: 30px;&quot;&gt;%c4Description%&lt;/div&gt;" id="Br8_Ab8YKEwOugRyF4kc-8">
          <mxCell style="rounded=1;whiteSpace=wrap;html=1;labelBackgroundColor=none;fillColor=#438DD5;fontColor=#ffffff;align=center;arcSize=10;strokeColor=#3C7FC0;metaEdit=1;metaData={&quot;c4Type&quot;:{&quot;editable&quot;:false}};points=[[0.25,0,0],[0.5,0,0],[0.75,0,0],[1,0.25,0],[1,0.5,0],[1,0.75,0],[0.75,1,0],[0.5,1,0],[0.25,1,0],[0,0.75,0],[0,0.5,0],[0,0.25,0]];fontSize=30;" vertex="1" parent="1">
            <mxGeometry x="2700" y="-5" width="470" height="280" as="geometry" />
          </mxCell>
        </object>
        <object placeholders="1" c4Type="Relationship" c4Technology="" c4Description="Scrie mesaje in chat " label="&lt;div style=&quot;text-align: left; font-size: 30px;&quot;&gt;&lt;div style=&quot;text-align: center; font-size: 30px;&quot;&gt;&lt;b style=&quot;font-size: 30px;&quot;&gt;%c4Description%&lt;/b&gt;&lt;/div&gt;&lt;div style=&quot;text-align: center; font-size: 30px;&quot;&gt;[%c4Technology%]&lt;/div&gt;&lt;/div&gt;" id="Br8_Ab8YKEwOugRyF4kc-10">
          <mxCell style="edgeStyle=none;rounded=0;html=1;jettySize=auto;orthogonalLoop=1;strokeColor=#707070;strokeWidth=6;fontColor=#707070;jumpStyle=none;dashed=1;metaEdit=1;metaData={&quot;c4Type&quot;:{&quot;editable&quot;:false}};fontSize=30;entryX=0.5;entryY=0;entryDx=0;entryDy=0;entryPerimeter=0;" edge="1" parent="1" source="Br8_Ab8YKEwOugRyF4kc-4" target="Br8_Ab8YKEwOugRyF4kc-12">
            <mxGeometry x="-0.4663" y="22" width="160" relative="1" as="geometry">
              <mxPoint x="-150" y="140" as="sourcePoint" />
              <mxPoint x="1295.7456226880404" y="-584" as="targetPoint" />
              <mxPoint y="-1" as="offset" />
            </mxGeometry>
          </mxCell>
        </object>
        <object placeholders="1" c4Name="Input Controler" c4Type="Component" c4Technology="HTML,CSS,JavaScript" c4Description="Permite userului sa scrie mesaje" label="&lt;b style=&quot;font-size: 30px;&quot;&gt;%c4Name%&lt;/b&gt;&lt;div style=&quot;font-size: 30px;&quot;&gt;[%c4Type%: %c4Technology%]&lt;/div&gt;&lt;br style=&quot;font-size: 30px;&quot;&gt;&lt;div style=&quot;font-size: 30px;&quot;&gt;%c4Description%&lt;/div&gt;" id="Br8_Ab8YKEwOugRyF4kc-12">
          <mxCell style="rounded=1;whiteSpace=wrap;html=1;labelBackgroundColor=none;fillColor=#85BBF0;fontColor=#ffffff;align=center;arcSize=10;strokeColor=#78A8D8;metaEdit=1;metaData={&quot;c4Type&quot;:{&quot;editable&quot;:false}};points=[[0.25,0,0],[0.5,0,0],[0.75,0,0],[1,0.25,0],[1,0.5,0],[1,0.75,0],[0.75,1,0],[0.5,1,0],[0.25,1,0],[0,0.75,0],[0,0.5,0],[0,0.25,0]];fontSize=30;" vertex="1" parent="1">
            <mxGeometry x="530" y="-670" width="530" height="350" as="geometry" />
          </mxCell>
        </object>
        <object placeholders="1" c4Name="Message controler" c4Type="Component" c4Technology="Javascript , socket.io" c4Description="Se oacupa de trimiterea si primirea mesajelor" label="&lt;b style=&quot;font-size: 30px;&quot;&gt;%c4Name%&lt;/b&gt;&lt;div style=&quot;font-size: 30px;&quot;&gt;[%c4Type%: %c4Technology%]&lt;/div&gt;&lt;br style=&quot;font-size: 30px;&quot;&gt;&lt;div style=&quot;font-size: 30px;&quot;&gt;%c4Description%&lt;/div&gt;" id="Br8_Ab8YKEwOugRyF4kc-14">
          <mxCell style="rounded=1;whiteSpace=wrap;html=1;labelBackgroundColor=none;fillColor=#85BBF0;fontColor=#ffffff;align=center;arcSize=10;strokeColor=#78A8D8;metaEdit=1;metaData={&quot;c4Type&quot;:{&quot;editable&quot;:false}};points=[[0.25,0,0],[0.5,0,0],[0.75,0,0],[1,0.25,0],[1,0.5,0],[1,0.75,0],[0.75,1,0],[0.5,1,0],[0.25,1,0],[0,0.75,0],[0,0.5,0],[0,0.25,0]];fontSize=30;" vertex="1" parent="1">
            <mxGeometry x="1570" y="-40" width="530" height="350" as="geometry" />
          </mxCell>
        </object>
        <object placeholders="1" c4Name="Security layer" c4Type="Component" c4Technology="JavaScript" c4Description="Previne atacurile de tipul cross site scripting" label="&lt;b style=&quot;font-size: 30px;&quot;&gt;%c4Name%&lt;/b&gt;&lt;div style=&quot;font-size: 30px;&quot;&gt;[%c4Type%: %c4Technology%]&lt;/div&gt;&lt;br style=&quot;font-size: 30px;&quot;&gt;&lt;div style=&quot;font-size: 30px;&quot;&gt;%c4Description%&lt;/div&gt;" id="Br8_Ab8YKEwOugRyF4kc-15">
          <mxCell style="rounded=1;whiteSpace=wrap;html=1;labelBackgroundColor=none;fillColor=#85BBF0;fontColor=#ffffff;align=center;arcSize=10;strokeColor=#78A8D8;metaEdit=1;metaData={&quot;c4Type&quot;:{&quot;editable&quot;:false}};points=[[0.25,0,0],[0.5,0,0],[0.75,0,0],[1,0.25,0],[1,0.5,0],[1,0.75,0],[0.75,1,0],[0.5,1,0],[0.25,1,0],[0,0.75,0],[0,0.5,0],[0,0.25,0]];fontSize=30;" vertex="1" parent="1">
            <mxGeometry x="1570" y="-680" width="530" height="350" as="geometry" />
          </mxCell>
        </object>
        <object placeholders="1" c4Type="Relationship" c4Technology="" c4Description="Preda mesajul pentru a &#xa;fi parsat si trimis &#xa;intr-un mod sigur" label="&lt;div style=&quot;text-align: left; font-size: 30px;&quot;&gt;&lt;div style=&quot;text-align: center; font-size: 30px;&quot;&gt;&lt;b style=&quot;font-size: 30px;&quot;&gt;%c4Description%&lt;/b&gt;&lt;/div&gt;&lt;div style=&quot;text-align: center; font-size: 30px;&quot;&gt;[%c4Technology%]&lt;/div&gt;&lt;/div&gt;" id="Br8_Ab8YKEwOugRyF4kc-16">
          <mxCell style="edgeStyle=none;rounded=0;html=1;jettySize=auto;orthogonalLoop=1;strokeColor=#707070;strokeWidth=6;fontColor=#707070;jumpStyle=none;dashed=1;metaEdit=1;metaData={&quot;c4Type&quot;:{&quot;editable&quot;:false}};fontSize=30;entryX=0;entryY=0.5;entryDx=0;entryDy=0;entryPerimeter=0;exitX=1;exitY=0.5;exitDx=0;exitDy=0;exitPerimeter=0;" edge="1" parent="1" source="Br8_Ab8YKEwOugRyF4kc-12" target="Br8_Ab8YKEwOugRyF4kc-15">
            <mxGeometry x="-0.0557" y="40" width="160" relative="1" as="geometry">
              <mxPoint x="1259.9234306569351" y="-140" as="sourcePoint" />
              <mxPoint x="820" y="350" as="targetPoint" />
              <mxPoint x="1" as="offset" />
            </mxGeometry>
          </mxCell>
        </object>
        <object placeholders="1" c4Type="Relationship" c4Technology="" c4Description="Preda mesajul pentru a&#xa; fi trimis catre API" label="&lt;div style=&quot;text-align: left; font-size: 30px;&quot;&gt;&lt;div style=&quot;text-align: center; font-size: 30px;&quot;&gt;&lt;b style=&quot;font-size: 30px;&quot;&gt;%c4Description%&lt;/b&gt;&lt;/div&gt;&lt;div style=&quot;text-align: center; font-size: 30px;&quot;&gt;[%c4Technology%]&lt;/div&gt;&lt;/div&gt;" id="Br8_Ab8YKEwOugRyF4kc-17">
          <mxCell style="edgeStyle=none;rounded=0;html=1;jettySize=auto;orthogonalLoop=1;strokeColor=#707070;strokeWidth=6;fontColor=#707070;jumpStyle=none;dashed=1;metaEdit=1;metaData={&quot;c4Type&quot;:{&quot;editable&quot;:false}};fontSize=30;exitX=0.5;exitY=1;exitDx=0;exitDy=0;exitPerimeter=0;" edge="1" parent="1" source="Br8_Ab8YKEwOugRyF4kc-15" target="Br8_Ab8YKEwOugRyF4kc-14">
            <mxGeometry x="-0.0154" y="55" width="160" relative="1" as="geometry">
              <mxPoint x="1070" y="-180" as="sourcePoint" />
              <mxPoint x="1580" y="-190" as="targetPoint" />
              <mxPoint x="1" as="offset" />
            </mxGeometry>
          </mxCell>
        </object>
        <object placeholders="1" c4Name="Message displayer" c4Type="Component" c4Technology="HTML,CSS,JavaScript" c4Description="Mermite vizualizarea convorbirii" label="&lt;b style=&quot;font-size: 30px;&quot;&gt;%c4Name%&lt;/b&gt;&lt;div style=&quot;font-size: 30px;&quot;&gt;[%c4Type%: %c4Technology%]&lt;/div&gt;&lt;br style=&quot;font-size: 30px;&quot;&gt;&lt;div style=&quot;font-size: 30px;&quot;&gt;%c4Description%&lt;/div&gt;" id="Br8_Ab8YKEwOugRyF4kc-18">
          <mxCell style="rounded=1;whiteSpace=wrap;html=1;labelBackgroundColor=none;fillColor=#85BBF0;fontColor=#ffffff;align=center;arcSize=10;strokeColor=#78A8D8;metaEdit=1;metaData={&quot;c4Type&quot;:{&quot;editable&quot;:false}};points=[[0.25,0,0],[0.5,0,0],[0.75,0,0],[1,0.25,0],[1,0.5,0],[1,0.75,0],[0.75,1,0],[0.5,1,0],[0.25,1,0],[0,0.75,0],[0,0.5,0],[0,0.25,0]];fontSize=30;" vertex="1" parent="1">
            <mxGeometry x="530" y="-40" width="530" height="350" as="geometry" />
          </mxCell>
        </object>
        <object placeholders="1" c4Type="Relationship" c4Technology="" c4Description="Trimite mesajele primite&#xa;pentru a fi afisate" label="&lt;div style=&quot;text-align: left; font-size: 30px;&quot;&gt;&lt;div style=&quot;text-align: center; font-size: 30px;&quot;&gt;&lt;b style=&quot;font-size: 30px;&quot;&gt;%c4Description%&lt;/b&gt;&lt;/div&gt;&lt;div style=&quot;text-align: center; font-size: 30px;&quot;&gt;[%c4Technology%]&lt;/div&gt;&lt;/div&gt;" id="Br8_Ab8YKEwOugRyF4kc-20">
          <mxCell style="edgeStyle=none;rounded=0;html=1;jettySize=auto;orthogonalLoop=1;strokeColor=#707070;strokeWidth=6;fontColor=#707070;jumpStyle=none;dashed=1;metaEdit=1;metaData={&quot;c4Type&quot;:{&quot;editable&quot;:false}};fontSize=30;exitX=0;exitY=0.5;exitDx=0;exitDy=0;exitPerimeter=0;entryX=1;entryY=0.5;entryDx=0;entryDy=0;entryPerimeter=0;" edge="1" parent="1" source="Br8_Ab8YKEwOugRyF4kc-14" target="Br8_Ab8YKEwOugRyF4kc-18">
            <mxGeometry x="-0.0154" y="55" width="160" relative="1" as="geometry">
              <mxPoint x="1250" y="-20" as="sourcePoint" />
              <mxPoint x="1250" y="270" as="targetPoint" />
              <mxPoint x="1" as="offset" />
            </mxGeometry>
          </mxCell>
        </object>
        <object placeholders="1" c4Type="Relationship" c4Technology="" c4Description="Trimite mesajele primite&#xa;pentru a fi afisate" label="&lt;div style=&quot;text-align: left; font-size: 30px;&quot;&gt;&lt;div style=&quot;text-align: center; font-size: 30px;&quot;&gt;&lt;b style=&quot;font-size: 30px;&quot;&gt;%c4Description%&lt;/b&gt;&lt;/div&gt;&lt;div style=&quot;text-align: center; font-size: 30px;&quot;&gt;[%c4Technology%]&lt;/div&gt;&lt;/div&gt;" id="Br8_Ab8YKEwOugRyF4kc-21">
          <mxCell style="edgeStyle=none;rounded=0;html=1;jettySize=auto;orthogonalLoop=1;strokeColor=#707070;strokeWidth=6;fontColor=#707070;jumpStyle=none;dashed=1;metaEdit=1;metaData={&quot;c4Type&quot;:{&quot;editable&quot;:false}};fontSize=30;entryX=0.75;entryY=0;entryDx=0;entryDy=0;entryPerimeter=0;" edge="1" parent="1" source="Br8_Ab8YKEwOugRyF4kc-15" target="Br8_Ab8YKEwOugRyF4kc-18">
            <mxGeometry x="-0.0588" y="-60" width="160" relative="1" as="geometry">
              <mxPoint x="1530" as="sourcePoint" />
              <mxPoint x="1060" y="-20" as="targetPoint" />
              <mxPoint as="offset" />
              <Array as="points">
                <mxPoint x="1320" y="-140" />
              </Array>
            </mxGeometry>
          </mxCell>
        </object>
      </root>
    </mxGraphModel>
  </diagram>
</mxfile>
